<svg xmlns="http://www.w3.org/2000/svg" width="1000" height="1400" viewBox="0 0 1000 1400"><g fill="none" stroke="#7DD3FC"><g opacity=".49"><path stroke-width="1.2" d="M 234 90 L 766 90 L 792 116 L 260 116 Z"/><line x1="260" x2="260" y1="116" y2="176" stroke-width=".5" opacity=".4"/><line x1="792" x2="792" y1="116" y2="176" stroke-width=".5" opacity=".4"/><text x="216" y="120" fill="#7DD3FC" stroke="none" font-family="'IBM Plex Mono',monospace" font-size="22" letter-spacing="2" text-anchor="end">F1</text><text x="814" y="120" fill="#7DD3FC" stroke="none" font-family="'IBM Plex Mono',monospace" font-size="16" letter-spacing="3" opacity=".8">AMANAH</text></g><g opacity=".53"><path stroke-width="1.2" d="M 227 182 L 773 182 L 799 208 L 253 208 Z"/><line x1="253" x2="253" y1="208" y2="268" stroke-width=".5" opacity=".4"/><line x1="799" x2="799" y1="208" y2="268" stroke-width=".5" opacity=".4"/><text x="209" y="212" fill="#7DD3FC" stroke="none" font-family="'IBM Plex Mono',monospace" font-size="22" letter-spacing="2" text-anchor="end">F2</text><text x="821" y="212" fill="#7DD3FC" stroke="none" font-family="'IBM Plex Mono',monospace" font-size="16" letter-spacing="3" opacity=".8">TRUTH</text></g><g opacity=".58"><path stroke-width="1.2" d="M 220 274 L 780 274 L 806 300 L 246 300 Z"/><line x1="246" x2="246" y1="300" y2="360" stroke-width=".5" opacity=".4"/><line x1="806" x2="806" y1="300" y2="360" stroke-width=".5" opacity=".4"/><text x="202" y="304" fill="#7DD3FC" stroke="none" font-family="'IBM Plex Mono',monospace" font-size="22" letter-spacing="2" text-anchor="end">F3</text><text x="828" y="304" fill="#7DD3FC" stroke="none" font-family="'IBM Plex Mono',monospace" font-size="16" letter-spacing="3" opacity=".8">WITNESS</text></g><g opacity=".62"><path stroke-width="1.2" d="M 213 366 L 787 366 L 813 392 L 239 392 Z"/><line x1="239" x2="239" y1="392" y2="452" stroke-width=".5" opacity=".4"/><line x1="813" x2="813" y1="392" y2="452" stroke-width=".5" opacity=".4"/><text x="195" y="396" fill="#7DD3FC" stroke="none" font-family="'IBM Plex Mono',monospace" font-size="22" letter-spacing="2" text-anchor="end">F4</text><text x="835" y="396" fill="#7DD3FC" stroke="none" font-family="'IBM Plex Mono',monospace" font-size="16" letter-spacing="3" opacity=".8">CLARITY</text></g><g opacity=".66"><path stroke-width="1.2" d="M 206 458 L 794 458 L 820 484 L 232 484 Z"/><line x1="232" x2="232" y1="484" y2="544" stroke-width=".5" opacity=".4"/><line x1="820" x2="820" y1="484" y2="544" stroke-width=".5" opacity=".4"/><text x="188" y="488" fill="#7DD3FC" stroke="none" font-family="'IBM Plex Mono',monospace" font-size="22" letter-spacing="2" text-anchor="end">F5</text><text x="842" y="488" fill="#7DD3FC" stroke="none" font-family="'IBM Plex Mono',monospace" font-size="16" letter-spacing="3" opacity=".8">PEACE</text></g><g opacity=".7"><path stroke-width="1.2" d="M 199 550 L 801 550 L 827 576 L 225 576 Z"/><line x1="225" x2="225" y1="576" y2="636" stroke-width=".5" opacity=".4"/><line x1="827" x2="827" y1="576" y2="636" stroke-width=".5" opacity=".4"/><text x="181" y="580" fill="#7DD3FC" stroke="none" font-family="'IBM Plex Mono',monospace" font-size="22" letter-spacing="2" text-anchor="end">F6</text><text x="849" y="580" fill="#7DD3FC" stroke="none" font-family="'IBM Plex Mono',monospace" font-size="16" letter-spacing="3" opacity=".8">EMPATHY</text></g><g opacity=".75"><path stroke-width="1.2" d="M 192 642 L 808 642 L 834 668 L 218 668 Z"/><line x1="218" x2="218" y1="668" y2="728" stroke-width=".5" opacity=".4"/><line x1="834" x2="834" y1="668" y2="728" stroke-width=".5" opacity=".4"/><text x="174" y="672" fill="#7DD3FC" stroke="none" font-family="'IBM Plex Mono',monospace" font-size="22" letter-spacing="2" text-anchor="end">F7</text><text x="856" y="672" fill="#7DD3FC" stroke="none" font-family="'IBM Plex Mono',monospace" font-size="16" letter-spacing="3" opacity=".8">HUMILITY</text></g><g opacity=".79"><path stroke-width="1.2" d="M 185 734 L 815 734 L 841 760 L 211 760 Z"/><line x1="211" x2="211" y1="760" y2="820" stroke-width=".5" opacity=".4"/><line x1="841" x2="841" y1="760" y2="820" stroke-width=".5" opacity=".4"/><text x="167" y="764" fill="#7DD3FC" stroke="none" font-family="'IBM Plex Mono',monospace" font-size="22" letter-spacing="2" text-anchor="end">F8</text><text x="863" y="764" fill="#7DD3FC" stroke="none" font-family="'IBM Plex Mono',monospace" font-size="16" letter-spacing="3" opacity=".8">GENIUS</text></g><g opacity=".83"><path stroke-width="1.2" d="M 178 826 L 822 826 L 848 852 L 204 852 Z"/><line x1="204" x2="204" y1="852" y2="912" stroke-width=".5" opacity=".4"/><line x1="848" x2="848" y1="852" y2="912" stroke-width=".5" opacity=".4"/><text x="160" y="856" fill="#7DD3FC" stroke="none" font-family="'IBM Plex Mono',monospace" font-size="22" letter-spacing="2" text-anchor="end">F9</text><text x="870" y="856" fill="#7DD3FC" stroke="none" font-family="'IBM Plex Mono',monospace" font-size="16" letter-spacing="3" opacity=".8">ANTI-HANTU</text></g><g opacity=".87"><path stroke-width="1.2" d="M 171 918 L 829 918 L 855 944 L 197 944 Z"/><line x1="197" x2="197" y1="944" y2="1004" stroke-width=".5" opacity=".4"/><line x1="855" x2="855" y1="944" y2="1004" stroke-width=".5" opacity=".4"/><text x="153" y="948" fill="#7DD3FC" stroke="none" font-family="'IBM Plex Mono',monospace" font-size="22" letter-spacing="2" text-anchor="end">F10</text><text x="877" y="948" fill="#7DD3FC" stroke="none" font-family="'IBM Plex Mono',monospace" font-size="16" letter-spacing="3" opacity=".8">ONTOLOGY</text></g><g opacity=".92"><path stroke-width="1.2" d="M 164 1010 L 836 1010 L 862 1036 L 190 1036 Z"/><line x1="190" x2="190" y1="1036" y2="1096" stroke-width=".5" opacity=".4"/><line x1="862" x2="862" y1="1036" y2="1096" stroke-width=".5" opacity=".4"/><text x="146" y="1040" fill="#7DD3FC" stroke="none" font-family="'IBM Plex Mono',monospace" font-size="22" letter-spacing="2" text-anchor="end">F11</text><text x="884" y="1040" fill="#7DD3FC" stroke="none" font-family="'IBM Plex Mono',monospace" font-size="16" letter-spacing="3" opacity=".8">AUTH</text></g><g opacity=".96"><path stroke-width="1.2" d="M 157 1102 L 843 1102 L 869 1128 L 183 1128 Z"/><line x1="183" x2="183" y1="1128" y2="1188" stroke-width=".5" opacity=".4"/><line x1="869" x2="869" y1="1128" y2="1188" stroke-width=".5" opacity=".4"/><text x="139" y="1132" fill="#7DD3FC" stroke="none" font-family="'IBM Plex Mono',monospace" font-size="22" letter-spacing="2" text-anchor="end">F12</text><text x="891" y="1132" fill="#7DD3FC" stroke="none" font-family="'IBM Plex Mono',monospace" font-size="16" letter-spacing="3" opacity=".8">INJECTION</text></g><g opacity="1"><path stroke-width="1.2" d="M 150 1194 L 850 1194 L 876 1220 L 176 1220 Z"/><line x1="176" x2="176" y1="1220" y2="1280" stroke-width=".5" opacity=".4"/><line x1="876" x2="876" y1="1220" y2="1280" stroke-width=".5" opacity=".4"/><text x="132" y="1224" fill="#7DD3FC" stroke="none" font-family="'IBM Plex Mono',monospace" font-size="22" letter-spacing="2" text-anchor="end">F13</text><text x="898" y="1224" fill="#7DD3FC" stroke="none" font-family="'IBM Plex Mono',monospace" font-size="16" letter-spacing="3" opacity=".8">SOVEREIGN</text></g><line x1="500" x2="500" y1="60" y2="1296" stroke-dasharray="3 6" stroke-width=".5" opacity=".25"/></g></svg>