<svg xmlns="http://www.w3.org/2000/svg" width="1400" height="900" viewBox="0 0 1400 900"><defs><filter id="rough" width="110%" height="110%" x="-5%" y="-5%"><feTurbulence baseFrequency=".02" numOctaves="2" result="n" seed="11" type="fractalNoise"/><feDisplacementMap in="SourceGraphic" in2="n" scale="4"/></filter></defs><g fill="none" stroke="#14110C" filter="url(#rough)"><path stroke-width="1.5" d="M 700,40 L 742,90 L 730,150 L 768,205 L 750,268 L 786,330 L 770,395 L 812,455 L 795,520 L 838,585 L 820,650 L 860,715 L 845,780 L 872,850" opacity=".85"/><path stroke-width="1.25" d="M 1180,120 L 1250,150 L 1310,210 L 1360,280 L 1390,360" opacity=".6"/></g><ellipse cx="1040" cy="470" fill="none" stroke="#14110C" stroke-dasharray="6 6" stroke-width="1" opacity=".4" rx="250" ry="290" transform="rotate(-12 1040 470)"/><text x="1040" y="470" fill="#14110C" font-family="'IBM Plex Mono',monospace" font-size="20" letter-spacing="3" opacity=".55" text-anchor="middle">MALAY BASIN</text><line x1="800" x2="800" y1="0" y2="900" stroke="#14110C" stroke-width=".5" opacity=".12"/><line x1="900" x2="900" y1="0" y2="900" stroke="#14110C" stroke-width=".5" opacity=".12"/><line x1="1000" x2="1000" y1="0" y2="900" stroke="#14110C" stroke-width=".5" opacity=".12"/><line x1="1100" x2="1100" y1="0" y2="900" stroke="#14110C" stroke-width=".5" opacity=".12"/><line x1="1200" x2="1200" y1="0" y2="900" stroke="#14110C" stroke-width=".5" opacity=".12"/><line x1="1300" x2="1300" y1="0" y2="900" stroke="#14110C" stroke-width=".5" opacity=".12"/><line x1="600" x2="1400" y1="100" y2="100" stroke="#14110C" stroke-width=".5" opacity=".12"/><line x1="600" x2="1400" y1="200" y2="200" stroke="#14110C" stroke-width=".5" opacity=".12"/><line x1="600" x2="1400" y1="300" y2="300" stroke="#14110C" stroke-width=".5" opacity=".12"/><line x1="600" x2="1400" y1="400" y2="400" stroke="#14110C" stroke-width=".5" opacity=".12"/><line x1="600" x2="1400" y1="500" y2="500" stroke="#14110C" stroke-width=".5" opacity=".12"/><line x1="600" x2="1400" y1="600" y2="600" stroke="#14110C" stroke-width=".5" opacity=".12"/><line x1="600" x2="1400" y1="700" y2="700" stroke="#14110C" stroke-width=".5" opacity=".12"/><line x1="600" x2="1400" y1="800" y2="800" stroke="#14110C" stroke-width=".5" opacity=".12"/><text x="620" y="880" fill="#14110C" font-family="'IBM Plex Mono',monospace" font-size="14" letter-spacing="2" opacity=".5">OFFSHORE PENINSULAR MALAYSIA — SCHEMATIC [INT]</text><circle cx="960" cy="300" r="7" fill="#FF9F1C" stroke="#14110C" stroke-width="1.5"/><circle cx="960" cy="300" r="14" fill="none" stroke="#14110C" stroke-width=".75" opacity=".5"/><text x="980" y="305" fill="#14110C" font-family="'IBM Plex Mono',monospace" font-size="15" letter-spacing="1.5">BEKANTAN-1</text><circle cx="1080" cy="460" r="7" fill="#FF9F1C" stroke="#14110C" stroke-width="1.5"/><circle cx="1080" cy="460" r="14" fill="none" stroke="#14110C" stroke-width=".75" opacity=".5"/><text x="1100" y="465" fill="#14110C" font-family="'IBM Plex Mono',monospace" font-size="15" letter-spacing="1.5">PUTERI BASEMENT-1</text><circle cx="900" cy="560" r="7" fill="#FF9F1C" stroke="#14110C" stroke-width="1.5"/><circle cx="900" cy="560" r="14" fill="none" stroke="#14110C" stroke-width=".75" opacity=".5"/><text x="920" y="565" fill="#14110C" font-family="'IBM Plex Mono',monospace" font-size="15" letter-spacing="1.5">LEBAH EMAS-1</text><circle cx="1150" cy="640" r="7" fill="#FF9F1C" stroke="#14110C" stroke-width="1.5"/><circle cx="1150" cy="640" r="14" fill="none" stroke="#14110C" stroke-width=".75" opacity=".5"/><text x="1170" y="645" fill="#14110C" font-family="'IBM Plex Mono',monospace" font-size="15" letter-spacing="1.5">BUNGA TASBIH-1</text></svg>