<svg xmlns="http://www.w3.org/2000/svg" width="64" height="64" viewBox="0 0 64 64"><defs><linearGradient id="strataGrad" x1="0" x2="0" y1="0" y2="1"><stop offset="0" stop-color="#D9A441"/><stop offset=".55" stop-color="#F09A62"/><stop offset="1" stop-color="#E8733B"/></linearGradient><clipPath id="disc"><circle cx="32" cy="32" r="28"/></clipPath></defs><circle cx="32" cy="32" r="28" fill="#111318" stroke="url(#strataGrad)" stroke-width="1.5"/><g fill="none" stroke="url(#strataGrad)" stroke-width="1.6" clip-path="url(#disc)"><path d="M4 16 Q 20 13 32 16 T 60 15"/><path d="M4 22 Q 18 25 32 22 T 60 23"/><path d="M4 28 Q 20 26 32 29 T 60 28"/><path d="M4 35 Q 18 38 32 35 T 60 36"/><path d="M4 42 Q 20 40 32 43 T 60 42"/><path d="M4 49 Q 18 52 32 49 T 60 50"/></g><rect width="3.6" height="56" x="30.2" y="4" fill="#0A0B0D"/><line x1="30.2" x2="30.2" y1="4" y2="60" stroke="#5FD68A" stroke-width=".8"/><line x1="33.8" x2="33.8" y1="4" y2="60" stroke="#5FD68A" stroke-width=".8"/></svg>